<?xml version="1.0" encoding="UTF-8"?>
<!DOCTYPE svg PUBLIC "-//W3C//DTD SVG 1.1//EN" "http://www.w3.org/Graphics/SVG/1.1/DTD/svg11.dtd">
<svg xmlns="http://www.w3.org/2000/svg" version="1.1" width="1024px" height="1024px" style="shape-rendering:geometricPrecision; text-rendering:geometricPrecision; image-rendering:optimizeQuality; fill-rule:evenodd; clip-rule:evenodd" xmlns:xlink="http://www.w3.org/1999/xlink">
<g><path style="opacity:1" fill="#f6f4eb" d="M -0.5,-0.5 C 340.833,-0.5 682.167,-0.5 1023.5,-0.5C 1023.5,340.833 1023.5,682.167 1023.5,1023.5C 682.167,1023.5 340.833,1023.5 -0.5,1023.5C -0.5,682.167 -0.5,340.833 -0.5,-0.5 Z"/></g>
<g><path style="opacity:1" fill="#132632" d="M 687.5,340.5 C 686.07,340.421 684.736,340.754 683.5,341.5C 680.103,339.836 676.436,339.003 672.5,339C 673.793,338.51 675.127,338.343 676.5,338.5C 678.766,338.859 680.599,338.192 682,336.5C 683.124,324.758 684.79,313.091 687,301.5C 687.408,299.59 688.575,298.59 690.5,298.5C 692.266,298.434 693.266,299.268 693.5,301C 690.579,314.026 688.579,327.193 687.5,340.5 Z"/></g>
<g><path style="opacity:1" fill="#1d3340" d="M 626.5,323.5 C 627.486,327.97 627.819,332.637 627.5,337.5C 644.009,337.17 660.342,337.504 676.5,338.5C 675.127,338.343 673.793,338.51 672.5,339C 676.436,339.003 680.103,339.836 683.5,341.5C 684.736,340.754 686.07,340.421 687.5,340.5C 687.5,345.167 687.5,349.833 687.5,354.5C 686.679,351.359 686.179,348.025 686,344.5C 685.667,350.5 685.333,356.5 685,362.5C 684.75,359.924 684.25,357.591 683.5,355.5C 682.831,357.631 682.165,359.631 681.5,361.5C 681.5,358.833 681.5,356.167 681.5,353.5C 683.745,353.459 684.412,352.625 683.5,351C 680.854,350.503 678.187,350.336 675.5,350.5C 675.5,349.5 675.5,348.5 675.5,347.5C 674.167,347.5 672.833,347.5 671.5,347.5C 674.358,346.834 677.358,346.167 680.5,345.5C 679.975,344.808 679.308,344.308 678.5,344C 671.508,343.5 664.508,343.334 657.5,343.5C 657.5,343.167 657.5,342.833 657.5,342.5C 661.846,342.666 666.179,342.499 670.5,342C 657.209,340.452 643.875,340.119 630.5,341C 629.263,341.232 628.263,341.732 627.5,342.5C 626.596,343.209 626.263,344.209 626.5,345.5C 625.5,345.5 624.5,345.5 623.5,345.5C 623.289,333.488 623.122,321.488 623,309.5C 624.051,317.49 625.051,325.49 626,333.5C 626.498,330.183 626.665,326.85 626.5,323.5 Z"/></g>
<g><path style="opacity:1" fill="#03141f" d="M 657.5,342.5 C 647.5,342.5 637.5,342.5 627.5,342.5C 628.263,341.732 629.263,341.232 630.5,341C 643.875,340.119 657.209,340.452 670.5,342C 666.179,342.499 661.846,342.666 657.5,342.5 Z"/></g>
<g><path style="opacity:1" fill="#f4f2ec" d="M 657.5,343.5 C 664.508,343.334 671.508,343.5 678.5,344C 679.308,344.308 679.975,344.808 680.5,345.5C 677.358,346.167 674.358,346.834 671.5,347.5C 656.892,349.657 642.559,352.99 628.5,357.5C 628.5,352.833 628.5,348.167 628.5,343.5C 638.167,343.5 647.833,343.5 657.5,343.5 Z"/></g>
<g><path style="opacity:1" fill="#7b8586" d="M 627.5,342.5 C 637.5,342.5 647.5,342.5 657.5,342.5C 657.5,342.833 657.5,343.167 657.5,343.5C 647.833,343.5 638.167,343.5 628.5,343.5C 628.5,348.167 628.5,352.833 628.5,357.5C 627.513,352.695 627.179,347.695 627.5,342.5 Z"/></g>
<g><path style="opacity:1" fill="#071a28" d="M 563.5,297.5 C 563.833,336.172 563.5,374.839 562.5,413.5C 561.668,403.517 561.168,393.517 561,383.5C 559.705,394.158 559.205,404.824 559.5,415.5C 639.5,415.833 639.5,416.167 559.5,416.5C 558.833,416.5 558.5,416.167 558.5,415.5C 558.333,378.832 558.5,342.165 559,305.5C 559.624,331.03 560.124,356.696 560.5,382.5C 561.444,371.184 562.11,359.851 562.5,348.5C 562.31,331.643 562.31,314.643 562.5,297.5C 550.5,297.5 538.5,297.5 526.5,297.5C 526.436,380.56 526.602,463.56 527,546.5C 527.692,545.975 528.192,545.308 528.5,544.5C 528.736,536.001 528.403,527.667 527.5,519.5C 529.021,517.714 529.354,515.881 528.5,514C 529.148,508.067 529.814,502.234 530.5,496.5C 530.667,519.169 530.5,541.836 530,564.5C 529.667,564.833 529.333,565.167 529,565.5C 528.667,559.5 528.333,553.5 528,547.5C 527.881,552.282 527.215,556.949 526,561.5C 525.5,473.501 525.333,385.501 525.5,297.5C 525.611,296.883 525.944,296.383 526.5,296C 538.5,295.333 550.5,295.333 562.5,296C 563.056,296.383 563.389,296.883 563.5,297.5 Z"/></g>
<g><path style="opacity:1" fill="#112431" d="M 626.5,323.5 C 626.665,326.85 626.498,330.183 626,333.5C 625.051,325.49 624.051,317.49 623,309.5C 623.122,321.488 623.289,333.488 623.5,345.5C 624.5,345.5 625.5,345.5 626.5,345.5C 626.263,344.209 626.596,343.209 627.5,342.5C 627.179,347.695 627.513,352.695 628.5,357.5C 642.559,352.99 656.892,349.657 671.5,347.5C 672.833,347.5 674.167,347.5 675.5,347.5C 675.5,348.5 675.5,349.5 675.5,350.5C 678.187,350.336 680.854,350.503 683.5,351C 684.412,352.625 683.745,353.459 681.5,353.5C 662.994,353.246 645.16,356.913 628,364.5C 627.503,367.146 627.336,369.813 627.5,372.5C 626.835,370.631 626.169,368.631 625.5,366.5C 624.833,368.5 624.167,370.5 623.5,372.5C 622.833,360.007 622.167,347.673 621.5,335.5C 621.033,324.156 620.366,312.823 619.5,301.5C 619.703,296.816 621.536,295.816 625,298.5C 625.883,306.813 626.383,315.147 626.5,323.5 Z"/></g>
<g><path style="opacity:1" fill="#f1f0e8" d="M 681.5,353.5 C 681.5,356.167 681.5,358.833 681.5,361.5C 664.638,364.787 648.638,370.454 633.5,378.5C 631.167,376.833 629.167,374.833 627.5,372.5C 627.336,369.813 627.503,367.146 628,364.5C 645.16,356.913 662.994,353.246 681.5,353.5 Z"/></g>
<g><path style="opacity:1" fill="#142836" d="M 687.5,354.5 C 687.622,361.319 689.455,367.652 693,373.5C 701.85,380.26 710.516,387.26 719,394.5C 724.961,404.769 724.961,415.102 719,425.5C 709.861,435.126 701.194,445.126 693,455.5C 687.041,465.71 683.708,476.71 683,488.5C 682.912,507.879 682.079,527.212 680.5,546.5C 679.261,528.995 679.261,511.328 680.5,493.5C 680.333,491.167 680.167,488.833 680,486.5C 679.531,492.19 678.864,497.857 678,503.5C 677.501,498.511 677.334,493.511 677.5,488.5C 677.946,478.985 679.946,469.819 683.5,461C 682.87,459.69 681.87,458.856 680.5,458.5C 680.426,456.589 679.426,455.422 677.5,455C 679.433,454.217 680.933,454.717 682,456.5C 682.278,455.584 682.778,454.918 683.5,454.5C 684.978,454.762 686.311,454.429 687.5,453.5C 690.088,449.324 692.921,445.324 696,441.5C 704.449,433.895 711.449,425.229 717,415.5C 719.558,406.243 717.058,398.743 709.5,393C 703.833,389.167 698.167,385.333 692.5,381.5C 684.246,392.33 677.246,403.997 671.5,416.5C 670.527,415.016 669.193,414.516 667.5,415C 667.833,415.333 668.167,415.667 668.5,416C 667.809,417.067 667.309,418.234 667,419.5C 666.722,418.584 666.222,417.918 665.5,417.5C 666.358,414.95 667.358,412.45 668.5,410C 658.834,404.836 649.5,399.169 640.5,393C 636.666,390.332 633.333,387.165 630.5,383.5C 631.222,383.082 631.722,382.416 632,381.5C 632.333,382.5 632.667,383.5 633,384.5C 634.951,382.863 634.784,381.363 632.5,380C 633.056,379.617 633.389,379.117 633.5,378.5C 648.638,370.454 664.638,364.787 681.5,361.5C 682.165,359.631 682.831,357.631 683.5,355.5C 684.25,357.591 684.75,359.924 685,362.5C 685.333,356.5 685.667,350.5 686,344.5C 686.179,348.025 686.679,351.359 687.5,354.5 Z"/></g>
<g><path style="opacity:1" fill="#132a37" d="M 558.5,415.5 C 557.501,377.67 557.168,339.67 557.5,301.5C 548.651,301.174 539.984,301.507 531.5,302.5C 530.503,320.326 530.17,338.326 530.5,356.5C 528.931,374.443 528.598,392.276 529.5,410C 529.25,416.428 528.583,422.762 527.5,429C 528.994,437.211 529.661,445.545 529.5,454C 529.333,467.603 529,481.269 528.5,495C 529.094,495.464 529.761,495.631 530.5,495.5C 530.5,495.833 530.5,496.167 530.5,496.5C 529.814,502.234 529.148,508.067 528.5,514C 529.354,515.881 529.021,517.714 527.5,519.5C 528.403,527.667 528.736,536.001 528.5,544.5C 528.192,545.308 527.692,545.975 527,546.5C 526.602,463.56 526.436,380.56 526.5,297.5C 538.5,297.5 550.5,297.5 562.5,297.5C 562.31,314.643 562.31,331.643 562.5,348.5C 562.11,359.851 561.444,371.184 560.5,382.5C 560.124,356.696 559.624,331.03 559,305.5C 558.5,342.165 558.333,378.832 558.5,415.5 Z"/></g>
<g><path style="opacity:1" fill="#f4f2e9" d="M 681.5,366.5 C 682.376,366.369 683.043,366.702 683.5,367.5C 684.695,370.724 686.029,373.891 687.5,377C 681.922,385.483 676.589,394.15 671.5,403C 659.398,398.606 648.398,392.106 638.5,383.5C 639.779,381.854 641.445,380.687 643.5,380C 655.881,374.375 668.548,369.875 681.5,366.5 Z"/></g>
<g><path style="opacity:1" fill="#f5f3eb" d="M 683.5,454.5 C 676.744,450.93 670.077,447.097 663.5,443C 662.426,442.261 661.759,441.261 661.5,440C 664.984,432.203 668.317,424.37 671.5,416.5C 677.246,403.997 684.246,392.33 692.5,381.5C 698.167,385.333 703.833,389.167 709.5,393C 717.058,398.743 719.558,406.243 717,415.5C 711.449,425.229 704.449,433.895 696,441.5C 692.921,445.324 690.088,449.324 687.5,453.5C 686.311,454.429 684.978,454.762 683.5,454.5 Z"/></g>
<g><path style="opacity:1" fill="#43535b" d="M 525.5,297.5 C 525.333,385.501 525.5,473.501 526,561.5C 527.215,556.949 527.881,552.282 528,547.5C 528.333,553.5 528.667,559.5 529,565.5C 529.333,565.167 529.667,564.833 530,564.5C 530.5,541.836 530.667,519.169 530.5,496.5C 530.5,496.167 530.5,495.833 530.5,495.5C 530.5,449.167 530.5,402.833 530.5,356.5C 530.17,338.326 530.503,320.326 531.5,302.5C 531.5,389.833 531.5,477.167 531.5,564.5C 531.389,565.117 531.056,565.617 530.5,566C 534.167,566.333 537.833,566.667 541.5,567C 540.584,567.374 539.75,567.874 539,568.5C 532.872,568.245 526.706,568.245 520.5,568.5C 520.5,567.5 520.5,566.5 520.5,565.5C 522.099,565.768 523.432,565.434 524.5,564.5C 524.167,475.332 524.501,386.332 525.5,297.5 Z"/></g>
<g><path style="opacity:1" fill="#031828" d="M 530.5,356.5 C 530.5,402.833 530.5,449.167 530.5,495.5C 529.761,495.631 529.094,495.464 528.5,495C 529,481.269 529.333,467.603 529.5,454C 529.661,445.545 528.994,437.211 527.5,429C 528.583,422.762 529.25,416.428 529.5,410C 528.598,392.276 528.931,374.443 530.5,356.5 Z"/></g>
<g><path style="opacity:1" fill="#f6f4eb" d="M 558.5,415.5 C 558.5,416.167 558.833,416.5 559.5,416.5C 579.66,417.497 599.993,417.83 620.5,417.5C 620.5,425.833 620.5,434.167 620.5,442.5C 600.5,442.5 580.5,442.5 560.5,442.5C 559.508,442.328 558.842,442.662 558.5,443.5C 557.501,483.663 557.168,523.997 557.5,564.5C 548.833,564.5 540.167,564.5 531.5,564.5C 531.5,477.167 531.5,389.833 531.5,302.5C 539.984,301.507 548.651,301.174 557.5,301.5C 557.168,339.67 557.501,377.67 558.5,415.5 Z"/></g>
<g><path style="opacity:1" fill="#f3f0e8" d="M 630.5,383.5 C 633.333,387.165 636.666,390.332 640.5,393C 649.5,399.169 658.834,404.836 668.5,410C 667.358,412.45 666.358,414.95 665.5,417.5C 664.19,419.435 662.857,421.435 661.5,423.5C 648.243,417.468 636.743,409.134 627,398.5C 626.171,393.136 626.337,387.802 627.5,382.5C 628.417,383.127 629.417,383.461 630.5,383.5 Z"/></g>
<g><path style="opacity:1" fill="#f3f2e9" d="M 627.5,454.5 C 626.745,440.838 626.078,427.171 625.5,413.5C 625.201,411.396 625.534,409.396 626.5,407.5C 636.836,415.999 647.836,423.499 659.5,430C 653.471,444.42 647.638,458.92 642,473.5C 639.574,479.365 636.407,484.698 632.5,489.5C 631.702,487.922 631.202,486.256 631,484.5C 629.927,474.339 628.761,464.339 627.5,454.5 Z"/></g>
<g><path style="opacity:1" fill="#f6f4eb" d="M 564.5,447.5 C 583.17,447.333 601.836,447.5 620.5,448C 621.492,452.749 622.158,457.582 622.5,462.5C 625.089,494.442 630.756,525.775 639.5,556.5C 640.701,558.909 642.367,560.909 644.5,562.5C 618.005,563.498 591.339,563.831 564.5,563.5C 564.5,524.833 564.5,486.167 564.5,447.5 Z"/></g>
<g><path style="opacity:1" fill="#152834" d="M 511.5,554.5 C 509.958,553.699 508.292,553.366 506.5,553.5C 506.662,555.527 506.495,557.527 506,559.5C 504.887,558.289 503.72,558.289 502.5,559.5C 501.261,559.058 500.261,558.391 499.5,557.5C 502.675,557.16 504.841,555.493 506,552.5C 507.492,547.589 507.826,542.589 507,537.5C 505.022,532.756 501.522,529.756 496.5,528.5C 490.996,531.751 485.662,535.251 480.5,539C 476.034,541.266 471.368,542.933 466.5,544C 432.22,546.62 399.553,540.62 368.5,526C 345.356,514.597 322.689,502.43 300.5,489.5C 293.885,495.488 292.385,502.488 296,510.5C 301.577,514.706 307.41,518.54 313.5,522C 333.71,532.272 354.044,542.272 374.5,552C 383.167,555.945 392.167,558.778 401.5,560.5C 399.49,561.693 397.324,561.693 395,560.5C 393.347,560.82 392.347,561.82 392,563.5C 391.612,562.572 390.945,561.905 390,561.5C 388.862,561.989 387.695,562.322 386.5,562.5C 386.167,562.5 385.833,562.5 385.5,562.5C 355.088,549.628 325.421,535.128 296.5,519C 288.942,513.257 286.442,505.757 289,496.5C 292,491.167 295,485.833 298,480.5C 300.507,465.312 304.84,450.645 311,436.5C 312.833,430.329 316.833,426.662 323,425.5C 328.082,425.91 331.416,428.577 333,433.5C 334.323,453.181 344.489,461.015 363.5,457C 370.593,452.236 377.926,447.903 385.5,444C 396.563,443.133 406.23,446.466 414.5,454C 429.304,468.811 442.804,484.644 455,501.5C 468.352,516.542 473.352,513.875 470,493.5C 467.218,484.105 462.051,476.272 454.5,470C 448.103,465.273 441.436,460.94 434.5,457C 409.214,445.333 385.214,431.667 362.5,416C 335.028,391.286 328.862,362.119 344,328.5C 357.344,308.196 376.178,296.362 400.5,293C 427.349,290.128 451.683,296.461 473.5,312C 488.888,324.611 497.555,340.778 499.5,360.5C 489.738,362.19 480.071,364.357 470.5,367C 468.5,367.667 466.5,367.667 464.5,367C 459.085,344.255 444.751,331.255 421.5,328C 414.167,327.333 406.833,327.333 399.5,328C 379.398,333.108 370.898,345.942 374,366.5C 378.547,377.388 385.714,386.221 395.5,393C 420.512,407.507 445.845,421.507 471.5,435C 504.481,456.655 514.815,486.322 502.5,524C 513.602,531.647 516.602,541.814 511.5,554.5 Z"/></g>
<g><path style="opacity:1" fill="#f0efe9" d="M 384.5,449.5 C 393.777,448.093 401.777,450.593 408.5,457C 403.687,458.788 398.687,460.121 393.5,461C 392.167,462.667 392.167,464.333 393.5,466C 400.338,465.234 407.171,464.068 414,462.5C 415.991,463.763 417.991,465.097 420,466.5C 420.432,467.6 419.932,468.267 418.5,468.5C 413.738,469.524 409.071,470.857 404.5,472.5C 403.253,474.006 403.253,475.506 404.5,477C 410.862,476.33 417.195,475.164 423.5,473.5C 426.521,473.817 428.521,475.483 429.5,478.5C 424.467,480.233 419.467,482.067 414.5,484C 413.167,485.333 413.167,486.667 414.5,488C 420.638,487.794 426.638,486.627 432.5,484.5C 435.824,484.983 438.158,486.816 439.5,490C 435.357,492.05 431.024,493.716 426.5,495C 423.471,499.656 424.804,501.323 430.5,500C 434.59,498.303 438.757,496.803 443,495.5C 444.868,497.034 446.368,498.867 447.5,501C 443.838,503.498 439.838,505.498 435.5,507C 434.62,508.356 434.286,509.856 434.5,511.5C 440.339,511 446.005,509.667 451.5,507.5C 454.782,509.607 457.949,511.94 461,514.5C 461.167,514.833 461.333,515.167 461.5,515.5C 452.554,521.083 443.887,520.583 435.5,514C 416.661,494.494 397.161,475.661 377,457.5C 376.333,456.833 376.333,456.167 377,455.5C 379.478,453.361 381.978,451.361 384.5,449.5 Z"/></g>
<g><path style="opacity:1" fill="#f5f3eb" d="M 401.5,298.5 C 427.404,296.196 450.737,302.696 471.5,318C 482.816,328.153 490.15,340.653 493.5,355.5C 485.244,357.653 476.911,359.153 468.5,360C 462.555,341.511 450.221,329.511 431.5,324C 415.383,318.604 399.717,319.604 384.5,327C 368.87,337.543 363.704,352.043 369,370.5C 372.901,379.12 378.401,386.62 385.5,393C 394.494,399.499 403.827,405.499 413.5,411C 433.151,420.824 452.484,431.158 471.5,442C 499.832,462.501 508.165,489.335 496.5,522.5C 489.473,520.102 482.473,517.602 475.5,515C 474.919,514.107 474.585,513.107 474.5,512C 478.708,498.695 476.541,486.529 468,475.5C 460.358,466.776 451.524,459.609 441.5,454C 418.994,442.803 396.994,430.803 375.5,418C 357.284,406.745 346.117,390.578 342,369.5C 340.181,338.297 353.681,316.463 382.5,304C 388.911,301.985 395.244,300.152 401.5,298.5 Z"/></g>
<g><path style="opacity:1" fill="#f5f3eb" d="M 320.5,431.5 C 323.044,431.104 325.211,431.771 327,433.5C 330.808,461.06 345.475,469.726 371,459.5C 375.789,463.286 380.289,467.453 384.5,472C 370.538,482.295 358.205,494.295 347.5,508C 345.536,508.624 343.869,508.124 342.5,506.5C 338.946,484.721 329.112,466.387 313,451.5C 313.504,444.145 316.004,437.479 320.5,431.5 Z"/></g>
<g><path style="opacity:1" fill="#f1efe7" d="M 309.5,457.5 C 322.463,467.387 330.963,480.387 335,496.5C 335.808,498.579 335.641,500.579 334.5,502.5C 323.919,496.626 313.419,490.626 303,484.5C 303.808,475.229 305.974,466.229 309.5,457.5 Z"/></g>
<g><path style="opacity:1" fill="#1a303e" d="M 558.5,443.5 C 558.842,442.662 559.508,442.328 560.5,442.5C 572.673,443.167 585.007,443.833 597.5,444.5C 588.349,445.372 579.182,446.039 570,446.5C 567.576,446.47 565.243,446.137 563,445.5C 562.5,446 562,446.5 561.5,447C 561.742,482.124 561.742,516.957 561.5,551.5C 560.749,550.624 560.249,549.624 560,548.5C 559.833,513.331 559.333,478.331 558.5,443.5 Z"/></g>
<g><path style="opacity:1" fill="#203440" d="M 563.5,297.5 C 564.498,334.996 564.832,372.663 564.5,410.5C 583.167,410.5 601.833,410.5 620.5,410.5C 621.103,385.504 621.436,360.504 621.5,335.5C 622.167,347.673 622.833,360.007 623.5,372.5C 624.167,370.5 624.833,368.5 625.5,366.5C 626.169,368.631 626.835,370.631 627.5,372.5C 629.167,374.833 631.167,376.833 633.5,378.5C 633.389,379.117 633.056,379.617 632.5,380C 634.784,381.363 634.951,382.863 633,384.5C 632.667,383.5 632.333,382.5 632,381.5C 631.722,382.416 631.222,383.082 630.5,383.5C 629.417,383.461 628.417,383.127 627.5,382.5C 626.337,387.802 626.171,393.136 627,398.5C 636.743,409.134 648.243,417.468 661.5,423.5C 662.857,421.435 664.19,419.435 665.5,417.5C 666.222,417.918 666.722,418.584 667,419.5C 667.309,418.234 667.809,417.067 668.5,416C 668.167,415.667 667.833,415.333 667.5,415C 669.193,414.516 670.527,415.016 671.5,416.5C 668.317,424.37 664.984,432.203 661.5,440C 661.759,441.261 662.426,442.261 663.5,443C 670.077,447.097 676.744,450.93 683.5,454.5C 682.778,454.918 682.278,455.584 682,456.5C 680.933,454.717 679.433,454.217 677.5,455C 679.426,455.422 680.426,456.589 680.5,458.5C 673.899,455.532 667.566,452.032 661.5,448C 660.365,447.251 659.365,447.417 658.5,448.5C 653.825,461.517 648.325,474.183 642,486.5C 639.578,490.344 636.911,494.01 634,497.5C 635.346,516.561 639.012,535.228 645,553.5C 649.11,558.823 654.61,561.156 661.5,560.5C 670.643,561.193 675.143,556.86 675,547.5C 675.169,532.994 675.669,518.661 676.5,504.5C 676.179,498.974 676.512,493.64 677.5,488.5C 677.334,493.511 677.501,498.511 678,503.5C 678.864,497.857 679.531,492.19 680,486.5C 680.167,488.833 680.333,491.167 680.5,493.5C 679.261,511.328 679.261,528.995 680.5,546.5C 680.33,553.211 678.33,559.211 674.5,564.5C 674.082,565.222 673.416,565.722 672.5,566C 675.5,566.333 678.5,566.667 681.5,567C 672.248,568.417 662.915,568.917 653.5,568.5C 653.539,567.417 653.873,566.417 654.5,565.5C 652.31,563.993 650.976,561.993 650.5,559.5C 647.637,559.071 644.971,558.071 642.5,556.5C 643.025,555.808 643.692,555.308 644.5,555C 643.354,554.355 642.354,553.522 641.5,552.5C 640.828,553.949 640.161,555.282 639.5,556.5C 630.756,525.775 625.089,494.442 622.5,462.5C 623.665,461.504 624.332,460.171 624.5,458.5C 623.927,456.646 623.593,454.813 623.5,453C 624.126,452.25 624.626,451.416 625,450.5C 625.76,454.819 626.427,459.152 627,463.5C 627.498,460.518 627.665,457.518 627.5,454.5C 628.761,464.339 629.927,474.339 631,484.5C 631.202,486.256 631.702,487.922 632.5,489.5C 636.407,484.698 639.574,479.365 642,473.5C 647.638,458.92 653.471,444.42 659.5,430C 647.836,423.499 636.836,415.999 626.5,407.5C 625.534,409.396 625.201,411.396 625.5,413.5C 624.833,419.346 624.167,425.346 623.5,431.5C 622.027,426.839 621.027,422.172 620.5,417.5C 599.993,417.83 579.66,417.497 559.5,416.5C 639.5,416.167 639.5,415.833 559.5,415.5C 559.205,404.824 559.705,394.158 561,383.5C 561.168,393.517 561.668,403.517 562.5,413.5C 563.5,374.839 563.833,336.172 563.5,297.5 Z"/></g>
<g><path style="opacity:1" fill="#f5f3eb" d="M 680.5,458.5 C 681.87,458.856 682.87,459.69 683.5,461C 679.946,469.819 677.946,478.985 677.5,488.5C 676.512,493.64 676.179,498.974 676.5,504.5C 675.669,518.661 675.169,532.994 675,547.5C 675.143,556.86 670.643,561.193 661.5,560.5C 654.61,561.156 649.11,558.823 645,553.5C 639.012,535.228 635.346,516.561 634,497.5C 636.911,494.01 639.578,490.344 642,486.5C 648.325,474.183 653.825,461.517 658.5,448.5C 659.365,447.417 660.365,447.251 661.5,448C 667.566,452.032 673.899,455.532 680.5,458.5 Z"/></g>
<g><path style="opacity:1" fill="#f1efe9" d="M 387.5,476.5 C 391.313,477.63 394.313,479.963 396.5,483.5C 384.053,493.112 372.72,503.946 362.5,516C 359.388,515.457 356.388,514.29 353.5,512.5C 352.479,511.998 352.312,511.332 353,510.5C 363.067,497.599 374.567,486.266 387.5,476.5 Z"/></g>
<g><path style="opacity:1" fill="#f0efe7" d="M 400.5,487.5 C 404.045,489.857 406.545,492.857 408,496.5C 397.275,504.437 387.775,513.603 379.5,524C 375.687,523.101 372.02,521.601 368.5,519.5C 370.473,516.36 372.64,513.36 375,510.5C 383.396,502.598 391.896,494.931 400.5,487.5 Z"/></g>
<g><path style="opacity:1" fill="#f4f2ea" d="M 411.5,500.5 C 412.552,500.351 413.552,500.517 414.5,501C 420.531,507.366 426.864,513.366 433.5,519C 439.84,523.56 446.84,525.227 454.5,524C 459.283,522.441 463.95,520.607 468.5,518.5C 475.439,521.152 482.439,523.652 489.5,526C 482.193,532.987 473.526,537.32 463.5,539C 436.437,541.211 410.437,537.045 385.5,526.5C 393.215,516.785 401.882,508.118 411.5,500.5 Z"/></g>
<g><path style="opacity:1" fill="#061a2a" d="M 676.5,504.5 C 677.222,504.918 677.722,505.584 678,506.5C 678.167,510.333 678.333,514.167 678.5,518C 678.052,523.154 678.052,528.154 678.5,533C 678.204,534.888 677.704,536.722 677,538.5C 676.5,527.172 676.333,515.838 676.5,504.5 Z"/></g>
<g><path style="opacity:1" fill="#081d2c" d="M 625.5,413.5 C 626.078,427.171 626.745,440.838 627.5,454.5C 627.665,457.518 627.498,460.518 627,463.5C 626.427,459.152 625.76,454.819 625,450.5C 624.626,451.416 624.126,452.25 623.5,453C 623.593,454.813 623.927,456.646 624.5,458.5C 624.332,460.171 623.665,461.504 622.5,462.5C 622.158,457.582 621.492,452.749 620.5,448C 601.836,447.5 583.17,447.333 564.5,447.5C 563.833,484.669 563.167,522.002 562.5,559.5C 562.393,557.027 562.059,554.693 561.5,552.5C 560.453,556.112 559.62,559.779 559,563.5C 558.5,523.501 558.333,483.501 558.5,443.5C 559.333,478.331 559.833,513.331 560,548.5C 560.249,549.624 560.749,550.624 561.5,551.5C 561.742,516.957 561.742,482.124 561.5,447C 562,446.5 562.5,446 563,445.5C 565.243,446.137 567.576,446.47 570,446.5C 579.182,446.039 588.349,445.372 597.5,444.5C 585.007,443.833 572.673,443.167 560.5,442.5C 580.5,442.5 600.5,442.5 620.5,442.5C 620.5,434.167 620.5,425.833 620.5,417.5C 621.027,422.172 622.027,426.839 623.5,431.5C 624.167,425.346 624.833,419.346 625.5,413.5 Z"/></g>
<g><path style="opacity:1" fill="#f4f2ea" d="M 499.5,557.5 C 488.179,560.161 476.846,562.161 465.5,563.5C 449.5,563.5 433.5,563.5 417.5,563.5C 412.262,562.506 406.928,561.506 401.5,560.5C 392.167,558.778 383.167,555.945 374.5,552C 354.044,542.272 333.71,532.272 313.5,522C 307.41,518.54 301.577,514.706 296,510.5C 292.385,502.488 293.885,495.488 300.5,489.5C 322.689,502.43 345.356,514.597 368.5,526C 399.553,540.62 432.22,546.62 466.5,544C 471.368,542.933 476.034,541.266 480.5,539C 485.662,535.251 490.996,531.751 496.5,528.5C 501.522,529.756 505.022,532.756 507,537.5C 507.826,542.589 507.492,547.589 506,552.5C 504.841,555.493 502.675,557.16 499.5,557.5 Z"/></g>
<g><path style="opacity:1" fill="#c2c4c0" d="M 385.5,562.5 C 385.833,562.5 386.167,562.5 386.5,562.5C 386.918,563.222 387.584,563.722 388.5,564C 387.906,564.464 387.239,564.631 386.5,564.5C 361.167,564.5 335.833,564.5 310.5,564.5C 335.5,563.833 360.5,563.167 385.5,562.5 Z"/></g>
<g><path style="opacity:1" fill="#071c29" d="M 310.5,564.5 C 335.833,564.5 361.167,564.5 386.5,564.5C 368.194,566.323 349.527,567.157 330.5,567C 331,567.5 331.5,568 332,568.5C 353.736,568.573 375.069,568.24 396,567.5C 397.5,568 399,568.5 400.5,569C 376.16,569.833 351.826,569.666 327.5,568.5C 328.025,567.808 328.692,567.308 329.5,567C 323.509,566.501 317.509,566.334 311.5,566.5C 311.737,567.791 311.404,568.791 310.5,569.5C 307.833,567.833 307.833,566.167 310.5,564.5 Z"/></g>
<g><path style="opacity:1" fill="#263c48" d="M 558.5,443.5 C 558.333,483.501 558.5,523.501 559,563.5C 559.62,559.779 560.453,556.112 561.5,552.5C 562.059,554.693 562.393,557.027 562.5,559.5C 563.167,522.002 563.833,484.669 564.5,447.5C 564.5,486.167 564.5,524.833 564.5,563.5C 564.5,563.833 564.5,564.167 564.5,564.5C 564.082,565.222 563.416,565.722 562.5,566C 589.833,566.667 617.167,566.667 644.5,566C 645.056,565.617 645.389,565.117 645.5,564.5C 645.672,563.508 645.338,562.842 644.5,562.5C 642.367,560.909 640.701,558.909 639.5,556.5C 640.161,555.282 640.828,553.949 641.5,552.5C 642.354,553.522 643.354,554.355 644.5,555C 643.692,555.308 643.025,555.808 642.5,556.5C 644.971,558.071 647.637,559.071 650.5,559.5C 650.976,561.993 652.31,563.993 654.5,565.5C 653.873,566.417 653.539,567.417 653.5,568.5C 632.363,568.489 611.03,568.156 589.5,567.5C 583.063,567.373 576.73,567.873 570.5,569C 621.832,569.5 673.166,569.667 724.5,569.5C 688.337,570.498 652.004,570.832 615.5,570.5C 514.5,570.5 413.5,570.5 312.5,570.5C 311.508,570.672 310.842,570.338 310.5,569.5C 311.404,568.791 311.737,567.791 311.5,566.5C 317.509,566.334 323.509,566.501 329.5,567C 328.692,567.308 328.025,567.808 327.5,568.5C 351.826,569.666 376.16,569.833 400.5,569C 399,568.5 397.5,568 396,567.5C 375.069,568.24 353.736,568.573 332,568.5C 331.5,568 331,567.5 330.5,567C 349.527,567.157 368.194,566.323 386.5,564.5C 387.239,564.631 387.906,564.464 388.5,564C 387.584,563.722 386.918,563.222 386.5,562.5C 387.695,562.322 388.862,561.989 390,561.5C 390.945,561.905 391.612,562.572 392,563.5C 392.347,561.82 393.347,560.82 395,560.5C 397.324,561.693 399.49,561.693 401.5,560.5C 406.928,561.506 412.262,562.506 417.5,563.5C 420.735,564.363 424.735,564.863 429.5,565C 430.458,566.147 430.125,567.147 428.5,568C 420.254,568.815 412.088,568.648 404,567.5C 403.25,568.126 402.416,568.626 401.5,569C 422.833,569.667 444.167,569.667 465.5,569C 463.093,567.733 460.76,567.233 458.5,567.5C 458.833,566.833 459.167,566.167 459.5,565.5C 462.107,564.682 464.774,564.182 467.5,564C 466.906,563.536 466.239,563.369 465.5,563.5C 476.846,562.161 488.179,560.161 499.5,557.5C 500.261,558.391 501.261,559.058 502.5,559.5C 503.72,558.289 504.887,558.289 506,559.5C 506.495,557.527 506.662,555.527 506.5,553.5C 508.292,553.366 509.958,553.699 511.5,554.5C 509.912,558.41 507.579,561.743 504.5,564.5C 504.918,565.222 505.584,565.722 506.5,566C 510.833,566.333 515.167,566.667 519.5,567C 518.5,567.333 517.5,567.667 516.5,568C 503.454,568.814 490.454,568.647 477.5,567.5C 473.889,568.262 470.222,568.762 466.5,569C 500.833,569.667 535.167,569.667 569.5,569C 568.584,568.626 567.75,568.126 567,567.5C 560.42,568.396 553.587,568.562 546.5,568C 545.833,567.667 545.167,567.333 544.5,567C 548.5,566.667 552.5,566.333 556.5,566C 557.056,565.617 557.389,565.117 557.5,564.5C 557.168,523.997 557.501,483.663 558.5,443.5 Z"/></g>
<g><path style="opacity:1" fill="#071e2b" d="M 564.5,564.5 C 591.5,564.5 618.5,564.5 645.5,564.5C 645.389,565.117 645.056,565.617 644.5,566C 617.167,566.667 589.833,566.667 562.5,566C 563.416,565.722 564.082,565.222 564.5,564.5 Z"/></g>
<g><path style="opacity:1" fill="#072030" d="M 504.5,564.5 C 511.167,564.5 517.833,564.5 524.5,564.5C 523.432,565.434 522.099,565.768 520.5,565.5C 520.5,566.5 520.5,567.5 520.5,568.5C 526.706,568.245 532.872,568.245 539,568.5C 539.75,567.874 540.584,567.374 541.5,567C 537.833,566.667 534.167,566.333 530.5,566C 531.056,565.617 531.389,565.117 531.5,564.5C 540.167,564.5 548.833,564.5 557.5,564.5C 557.389,565.117 557.056,565.617 556.5,566C 552.5,566.333 548.5,566.667 544.5,567C 545.167,567.333 545.833,567.667 546.5,568C 553.587,568.562 560.42,568.396 567,567.5C 567.75,568.126 568.584,568.626 569.5,569C 535.167,569.667 500.833,569.667 466.5,569C 470.222,568.762 473.889,568.262 477.5,567.5C 490.454,568.647 503.454,568.814 516.5,568C 517.5,567.667 518.5,567.333 519.5,567C 515.167,566.667 510.833,566.333 506.5,566C 505.584,565.722 504.918,565.222 504.5,564.5 Z"/></g>
<g><path style="opacity:1" fill="#bdc0bd" d="M 644.5,562.5 C 645.338,562.842 645.672,563.508 645.5,564.5C 618.5,564.5 591.5,564.5 564.5,564.5C 564.5,564.167 564.5,563.833 564.5,563.5C 591.339,563.831 618.005,563.498 644.5,562.5 Z"/></g>
<g><path style="opacity:1" fill="#0e2330" d="M 417.5,563.5 C 433.5,563.5 449.5,563.5 465.5,563.5C 466.239,563.369 466.906,563.536 467.5,564C 464.774,564.182 462.107,564.682 459.5,565.5C 459.167,566.167 458.833,566.833 458.5,567.5C 460.76,567.233 463.093,567.733 465.5,569C 444.167,569.667 422.833,569.667 401.5,569C 402.416,568.626 403.25,568.126 404,567.5C 412.088,568.648 420.254,568.815 428.5,568C 430.125,567.147 430.458,566.147 429.5,565C 424.735,564.863 420.735,564.363 417.5,563.5 Z"/></g>
<g><path style="opacity:1" fill="#051c2a" d="M 674.5,564.5 C 691.17,564.333 707.837,564.5 724.5,565C 725.801,566.616 725.801,568.116 724.5,569.5C 673.166,569.667 621.832,569.5 570.5,569C 576.73,567.873 583.063,567.373 589.5,567.5C 611.03,568.156 632.363,568.489 653.5,568.5C 662.915,568.917 672.248,568.417 681.5,567C 678.5,566.667 675.5,566.333 672.5,566C 673.416,565.722 674.082,565.222 674.5,564.5 Z"/></g>
<g><path style="opacity:1" fill="#1b313e" d="M 682.5,567.5 C 689.158,566.834 695.992,566.5 703,566.5C 710.328,566.348 717.495,566.848 724.5,568C 710.775,568.659 696.775,568.493 682.5,567.5 Z"/></g>
<g><path style="opacity:1" fill="#e1e3de" d="M 312.5,570.5 C 413.5,570.5 514.5,570.5 615.5,570.5C 514.421,572.446 413.421,572.446 312.5,570.5 Z"/></g>
<g><path style="opacity:1" fill="#031421" d="M 590.5,608.5 C 622.833,608.5 655.167,608.5 687.5,608.5C 687.5,614.5 687.5,620.5 687.5,626.5C 675.167,626.5 662.833,626.5 650.5,626.5C 662.322,625.505 674.322,625.172 686.5,625.5C 686.5,620.167 686.5,614.833 686.5,609.5C 654.833,609.5 623.167,609.5 591.5,609.5C 590.955,613.172 590.622,612.838 590.5,608.5 Z"/></g>
<g><path style="opacity:1" fill="#03121e" d="M 709.5,608.5 C 735.5,608.5 761.5,608.5 787.5,608.5C 787.5,614.5 787.5,620.5 787.5,626.5C 768.5,626.5 749.5,626.5 730.5,626.5C 748.993,625.503 767.659,625.17 786.5,625.5C 786.5,620.167 786.5,614.833 786.5,609.5C 783.833,609.5 781.167,609.5 778.5,609.5C 755.833,609.5 733.167,609.5 710.5,609.5C 710.666,618.506 710.5,627.506 710,636.5C 709.5,627.173 709.334,617.839 709.5,608.5 Z"/></g>
<g><path style="opacity:1" fill="#132e3e" d="M 778.5,609.5 C 781.167,609.5 783.833,609.5 786.5,609.5C 786.5,614.833 786.5,620.167 786.5,625.5C 767.659,625.17 748.993,625.503 730.5,626.5C 730.5,637.167 730.5,647.833 730.5,658.5C 747.167,658.5 763.833,658.5 780.5,658.5C 780.81,664.758 780.476,670.924 779.5,677C 763.17,677.5 746.837,677.667 730.5,677.5C 730.5,688.167 730.5,698.833 730.5,709.5C 728.825,698.302 727.825,686.802 727.5,675C 727.833,674.667 728.167,674.333 728.5,674C 727.159,672.705 725.826,672.205 724.5,672.5C 725.289,670.512 726.455,670.179 728,671.5C 728.456,670.256 727.956,669.423 726.5,669C 727.308,668.692 727.975,668.192 728.5,667.5C 727.478,666.646 726.645,665.646 726,664.5C 725.465,666.271 724.631,666.604 723.5,665.5C 724.711,664.28 724.711,663.113 723.5,662C 725.055,660.354 726.721,660.021 728.5,661C 728.309,651.866 728.309,642.366 728.5,632.5C 726.669,633.052 725.003,633.052 723.5,632.5C 724.601,630.606 725.934,629.939 727.5,630.5C 727.925,628.851 727.925,627.017 727.5,625C 728.167,624.667 728.833,624.333 729.5,624C 726.447,620.271 727.114,618.771 731.5,619.5C 734.965,618.566 735.298,617.066 732.5,615C 733.635,614.251 734.635,614.417 735.5,615.5C 736.145,616.732 736.311,618.065 736,619.5C 738.899,618.126 739.066,616.626 736.5,615C 737.667,614.5 738.5,613.667 739,612.5C 740.343,616.361 741.843,616.361 743.5,612.5C 746.143,612.096 748.643,611.43 751,610.5C 751.667,611.167 751.667,611.833 751,612.5C 750.08,612.93 749.247,613.264 748.5,613.5C 749.833,614.167 751.167,614.833 752.5,615.5C 753.03,617.244 753.03,618.744 752.5,620C 750.312,619.773 747.979,620.106 745.5,621C 744.304,621.654 744.304,622.154 745.5,622.5C 751.917,622.25 758.083,622.25 764,622.5C 764.456,621.256 763.956,620.423 762.5,620C 764.423,619.192 766.423,618.692 768.5,618.5C 770.338,619.112 772.005,619.112 773.5,618.5C 773.402,619.616 773.902,620.616 775,621.5C 775.5,621.333 776,621.167 776.5,621C 775.167,620 775.167,619 776.5,618C 774.693,616.764 772.693,616.43 770.5,617C 773.167,616 773.167,615 770.5,614C 771.126,613.25 771.626,612.416 772,611.5C 773.268,611.616 774.602,611.949 776,612.5C 777.399,611.773 778.899,611.273 780.5,611C 779.584,610.722 778.918,610.222 778.5,609.5 Z"/></g>
<g><path style="opacity:1" fill="#111b24" d="M 545.5,613.5 C 545.565,613.938 545.399,614.272 545,614.5C 544.293,612.919 543.46,611.419 542.5,610C 535.144,609.169 527.811,609.335 520.5,610.5C 516.064,621.967 511.397,632.634 506.5,642.5C 510.691,631.284 515.024,620.117 519.5,609C 527.5,608.333 535.5,608.333 543.5,609C 544.582,610.33 545.249,611.83 545.5,613.5 Z"/></g>
<g><path style="opacity:1" fill="#183546" d="M 366.5,608.5 C 367.496,624.658 367.83,640.991 367.5,657.5C 387.5,657.5 407.5,657.5 427.5,657.5C 427.56,658.043 427.893,658.376 428.5,658.5C 429.499,642.18 429.833,625.847 429.5,609.5C 435.833,609.5 442.167,609.5 448.5,609.5C 448.5,648.5 448.5,687.5 448.5,726.5C 442.167,726.5 435.833,726.5 429.5,726.5C 429.744,709.479 429.411,692.479 428.5,675.5C 407.993,675.17 387.66,675.503 367.5,676.5C 367.83,693.675 367.497,710.675 366.5,727.5C 366.667,710.497 366.5,693.497 366,676.5C 365.5,693.163 365.333,709.83 365.5,726.5C 359.167,726.5 352.833,726.5 346.5,726.5C 346.5,687.5 346.5,648.5 346.5,609.5C 352.833,609.5 359.167,609.5 365.5,609.5C 365.333,625.503 365.5,641.503 366,657.5C 366.5,641.17 366.667,624.837 366.5,608.5 Z"/></g>
<g><path style="opacity:1" fill="#173344" d="M 266.5,606.5 C 281.448,604.935 295.781,607.101 309.5,613C 311.666,614.002 313.333,615.502 314.5,617.5C 313.117,623.67 310.784,629.337 307.5,634.5C 292.519,624.462 276.852,622.962 260.5,630C 254.938,637.275 255.271,644.275 261.5,651C 276.245,656.47 290.912,662.137 305.5,668C 323.347,682.636 325.18,699.136 311,717.5C 296.497,727.787 280.331,731.62 262.5,729C 252.152,727.663 242.652,724.163 234,718.5C 233.888,711.668 236.055,705.668 240.5,700.5C 255.758,710.32 272.091,712.82 289.5,708C 296.433,704.628 298.933,699.128 297,691.5C 295.207,688.705 293.04,686.205 290.5,684C 277.167,679.333 263.833,674.667 250.5,670C 237.814,661.654 232.648,649.821 235,634.5C 237.471,624.707 242.971,617.207 251.5,612C 256.571,610.035 261.571,608.202 266.5,606.5 Z"/></g>
<g><path style="opacity:1" fill="#183747" d="M 734.5,659.5 C 748.516,659.167 762.516,659.501 776.5,660.5C 775.975,661.192 775.308,661.692 774.5,662C 777.167,663 777.167,664 774.5,665C 776.424,667.419 776.924,669.919 776,672.5C 762.78,672.057 748.947,672.057 734.5,672.5C 733.28,672.113 732.613,671.28 732.5,670C 733.187,668.838 733.353,667.672 733,666.5C 731.757,667.336 730.59,667.003 729.5,665.5C 731.886,665.324 734.552,665.324 737.5,665.5C 737.251,662.425 738.585,661.758 741.5,663.5C 745.573,663.336 746.073,662.336 743,660.5C 740.612,661.117 738.279,661.45 736,661.5C 734.97,661.164 734.47,660.497 734.5,659.5 Z"/></g>
<g><path style="opacity:1" fill="#193647" d="M 590.5,608.5 C 590.622,612.838 590.955,613.172 591.5,609.5C 623.167,609.5 654.833,609.5 686.5,609.5C 686.5,614.833 686.5,620.167 686.5,625.5C 674.322,625.172 662.322,625.505 650.5,626.5C 649.732,627.263 649.232,628.263 649,629.5C 648.5,661.832 648.333,694.165 648.5,726.5C 642.5,726.5 636.5,726.5 630.5,726.5C 630.167,594.5 629.833,594.5 629.5,726.5C 628.502,693.671 628.168,660.671 628.5,627.5C 615.816,627.832 603.149,627.499 590.5,626.5C 589.191,620.371 589.191,614.371 590.5,608.5 Z"/></g>
<g><path style="opacity:1" fill="#173546" d="M 709.5,608.5 C 709.334,617.839 709.5,627.173 710,636.5C 710.5,627.506 710.666,618.506 710.5,609.5C 733.167,609.5 755.833,609.5 778.5,609.5C 778.918,610.222 779.584,610.722 780.5,611C 778.899,611.273 777.399,611.773 776,612.5C 774.602,611.949 773.268,611.616 772,611.5C 771.626,612.416 771.126,613.25 770.5,614C 773.167,615 773.167,616 770.5,617C 772.693,616.43 774.693,616.764 776.5,618C 775.167,619 775.167,620 776.5,621C 776,621.167 775.5,621.333 775,621.5C 773.902,620.616 773.402,619.616 773.5,618.5C 772.005,619.112 770.338,619.112 768.5,618.5C 766.423,618.692 764.423,619.192 762.5,620C 763.956,620.423 764.456,621.256 764,622.5C 758.083,622.25 751.917,622.25 745.5,622.5C 744.304,622.154 744.304,621.654 745.5,621C 747.979,620.106 750.312,619.773 752.5,620C 753.03,618.744 753.03,617.244 752.5,615.5C 751.167,614.833 749.833,614.167 748.5,613.5C 749.247,613.264 750.08,612.93 751,612.5C 751.667,611.833 751.667,611.167 751,610.5C 748.643,611.43 746.143,612.096 743.5,612.5C 741.843,616.361 740.343,616.361 739,612.5C 738.5,613.667 737.667,614.5 736.5,615C 739.066,616.626 738.899,618.126 736,619.5C 736.311,618.065 736.145,616.732 735.5,615.5C 734.635,614.417 733.635,614.251 732.5,615C 735.298,617.066 734.965,618.566 731.5,619.5C 727.114,618.771 726.447,620.271 729.5,624C 728.833,624.333 728.167,624.667 727.5,625C 727.925,627.017 727.925,628.851 727.5,630.5C 725.934,629.939 724.601,630.606 723.5,632.5C 725.003,633.052 726.669,633.052 728.5,632.5C 728.309,642.366 728.309,651.866 728.5,661C 726.721,660.021 725.055,660.354 723.5,662C 724.711,663.113 724.711,664.28 723.5,665.5C 724.631,666.604 725.465,666.271 726,664.5C 726.645,665.646 727.478,666.646 728.5,667.5C 727.975,668.192 727.308,668.692 726.5,669C 727.956,669.423 728.456,670.256 728,671.5C 726.455,670.179 725.289,670.512 724.5,672.5C 725.826,672.205 727.159,672.705 728.5,674C 728.167,674.333 727.833,674.667 727.5,675C 727.825,686.802 728.825,698.302 730.5,709.5C 749.836,709.333 769.17,709.5 788.5,710C 789.639,715.416 789.806,720.916 789,726.5C 788.617,727.056 788.117,727.389 787.5,727.5C 762.005,726.502 736.339,726.169 710.5,726.5C 710.667,696.831 710.5,667.165 710,637.5C 709.832,666.67 709.332,695.67 708.5,724.5C 708.168,685.663 708.501,646.996 709.5,608.5 Z"/></g>
<g><path style="opacity:1" fill="#173445" d="M 545.5,613.5 C 561.352,651.217 576.686,689.217 591.5,727.5C 583.826,727.666 576.159,727.5 568.5,727C 564.833,718 561.167,709 557.5,700C 540.503,699.5 523.503,699.333 506.5,699.5C 523.328,698.668 540.328,698.168 557.5,698C 540.167,697.333 522.833,697.333 505.5,698C 504.226,698.977 504.226,699.811 505.5,700.5C 502.183,709.141 498.849,717.808 495.5,726.5C 487.862,727.497 480.196,727.831 472.5,727.5C 483.459,698.943 494.792,670.61 506.5,642.5C 511.397,632.634 516.064,621.967 520.5,610.5C 527.811,609.335 535.144,609.169 542.5,610C 543.46,611.419 544.293,612.919 545,614.5C 545.399,614.272 545.565,613.938 545.5,613.5 Z"/></g>
<g><path style="opacity:1" fill="#f4f3ea" d="M 531.5,633.5 C 538.65,648.6 544.65,664.267 549.5,680.5C 537.482,680.832 525.482,680.499 513.5,679.5C 519.703,664.222 525.703,648.888 531.5,633.5 Z"/></g>
<g><path style="opacity:1" fill="#010913" d="M 506.5,699.5 C 505.833,699.5 505.5,699.833 505.5,700.5C 504.226,699.811 504.226,698.977 505.5,698C 522.833,697.333 540.167,697.333 557.5,698C 540.328,698.168 523.328,698.668 506.5,699.5 Z"/></g>
<g><path style="opacity:1" fill="#031420" d="M 366.5,608.5 C 366.667,624.837 366.5,641.17 366,657.5C 365.5,641.503 365.333,625.503 365.5,609.5C 359.167,609.5 352.833,609.5 346.5,609.5C 346.5,648.5 346.5,687.5 346.5,726.5C 352.833,726.5 359.167,726.5 365.5,726.5C 365.333,709.83 365.5,693.163 366,676.5C 366.5,693.497 366.667,710.497 366.5,727.5C 359.5,727.5 352.5,727.5 345.5,727.5C 345.5,687.833 345.5,648.167 345.5,608.5C 352.5,608.5 359.5,608.5 366.5,608.5 Z"/></g>
<g><path style="opacity:1" fill="#0f1d27" d="M 650.5,626.5 C 662.833,626.5 675.167,626.5 687.5,626.5C 675.345,627.495 663.011,627.829 650.5,627.5C 650.5,660.833 650.5,694.167 650.5,727.5C 643.313,727.825 636.313,727.491 629.5,726.5C 629.833,594.5 630.167,594.5 630.5,726.5C 636.5,726.5 642.5,726.5 648.5,726.5C 648.333,694.165 648.5,661.832 649,629.5C 649.232,628.263 649.732,627.263 650.5,626.5 Z"/></g>
<g><path style="opacity:1" fill="#07151f" d="M 367.5,676.5 C 387.66,675.503 407.993,675.17 428.5,675.5C 429.411,692.479 429.744,709.479 429.5,726.5C 435.833,726.5 442.167,726.5 448.5,726.5C 448.5,687.5 448.5,648.5 448.5,609.5C 442.167,609.5 435.833,609.5 429.5,609.5C 429.833,625.847 429.499,642.18 428.5,658.5C 427.893,658.376 427.56,658.043 427.5,657.5C 427.5,641.167 427.5,624.833 427.5,608.5C 434.833,608.5 442.167,608.5 449.5,608.5C 449.5,648.167 449.5,687.833 449.5,727.5C 442.245,727.813 435.079,727.48 428,726.5C 427.5,709.837 427.333,693.17 427.5,676.5C 407.5,676.5 387.5,676.5 367.5,676.5 Z"/></g>
<g><path style="opacity:1" fill="#091a25" d="M 787.5,727.5 C 761.498,727.667 735.498,727.5 709.5,727C 708.748,726.329 708.414,725.496 708.5,724.5C 709.332,695.67 709.832,666.67 710,637.5C 710.5,667.165 710.667,696.831 710.5,726.5C 736.339,726.169 762.005,726.502 787.5,727.5 Z"/></g>
</svg>
